<?xml version="1.0" encoding="utf-8"?>
<!-- Generator: Adobe Illustrator 27.7.0, SVG Export Plug-In . SVG Version: 6.00 Build 0)  -->
<svg version="1.1" id="www.rw" xmlns="http://www.w3.org/2000/svg" xmlns:xlink="http://www.w3.org/1999/xlink" x="0px" y="0px"
	 viewBox="0 0 430.7 202.1" style="enable-background:new 0 0 430.7 202.1;" xml:space="preserve">
<style type="text/css">
	.st0{fill:url(#SVGID_1_);}
	.st1{fill:#FFF8E3;}
</style>
<g>
	<linearGradient id="SVGID_1_" gradientUnits="userSpaceOnUse" x1="11.855" y1="100.951" x2="421" y2="100.951">
		<stop  offset="0" style="stop-color:#FF90BC"/>
		<stop  offset="0.5054" style="stop-color:#F9F9E0"/>
		<stop  offset="0.9994" style="stop-color:#8ACDD7"/>
	</linearGradient>
	<path class="st0" d="M417.7,55.1c-4.5-4.5-11.7-4.5-16.2,0l-55.8,55.8V65c0-4.6-2.8-8.8-7.1-10.6c-4.3-1.8-9.2-0.8-12.5,2.5l-54,54
		V97.5L298.6,71c4.5-4.5,4.5-11.7,0-16.2c-4.5-4.5-11.7-4.5-16.2,0l-10.3,10.3v-1.4c0-6.3-5.1-11.4-11.4-11.4s-11.4,5.1-11.4,11.4
		V88l-22.7,22.7V64.8c0-4.6-2.8-8.8-7.1-10.6c-4.3-1.8-9.2-0.8-12.5,2.5l-54,54V98.8l27.2-27.2c4.5-4.5,4.5-11.7,0-16.2
		c-4.5-4.5-11.7-4.5-16.2,0l-11,11v-2.9c0-6.3-5.1-11.4-11.4-11.4s-11.4,5.1-11.4,11.4v25.8l-22,22V65.4c0-4.6-2.8-8.8-7.1-10.6
		c-4.3-1.8-9.2-0.8-12.5,2.5l-54,54V64.2c0-6.3-5.1-11.4-11.4-11.4s-11.4,5.1-11.4,11.4v74.7c0,4.6,2.8,8.8,7.1,10.6
		c4.3,1.8,9.2,0.8,12.5-2.5l54-54v45.9c0,4.6,2.8,8.8,7.1,10.6c1.4,0.6,2.9,0.9,4.4,0.9c3,0,5.9-1.2,8.1-3.3l25.3-25.3v16.6
		c0,4.6,2.8,8.8,7.1,10.6c4.3,1.8,9.2,0.8,12.5-2.5l54-54v45.9c0,4.6,2.8,8.8,7.1,10.6c1.4,0.6,2.9,0.9,4.4,0.9c3,0,5.9-1.2,8.1-3.3
		l26.1-26.1v18.2c0,4.6,2.8,8.8,7.1,10.6c4.3,1.8,9.2,0.8,12.5-2.5l54-54v45.9c0,4.6,2.8,8.8,7.1,10.6c1.4,0.6,2.9,0.9,4.4,0.9
		c3,0,5.9-1.2,8.1-3.3l75.4-75.4C422.1,66.8,422.1,59.6,417.7,55.1z M410.5,64.1l-75.4,75.4c-0.3,0.3-0.6,0.4-1,0.4
		c-0.2,0-0.4,0-0.5-0.1c-0.5-0.2-0.8-0.7-0.8-1.3V68.3l-71.2,71.2c-0.4,0.4-1,0.5-1.5,0.3c-0.5-0.2-0.8-0.7-0.8-1.3V96l-43.2,43.2
		c-0.3,0.3-0.6,0.4-1,0.4c-0.2,0-0.4,0-0.5-0.1c-0.5-0.2-0.8-0.7-0.8-1.3V68.1l-71.2,71.2c-0.4,0.4-1,0.5-1.5,0.3
		c-0.5-0.2-0.8-0.7-0.8-1.3V97.4l-42.5,42.5c-0.3,0.3-0.6,0.4-1,0.4c-0.2,0-0.4,0-0.5-0.1c-0.5-0.2-0.8-0.7-0.8-1.3V68.7l-71.2,71.2
		c-0.4,0.4-1,0.5-1.5,0.3c-0.5-0.2-0.8-0.7-0.8-1.3V64.2c0-0.8,0.6-1.4,1.4-1.4s1.4,0.6,1.4,1.4v71.4l71.2-71.2
		c0.4-0.4,1-0.5,1.5-0.3c0.5,0.2,0.8,0.7,0.8,1.3v70.2l42.1-42.1V63.6c0-0.8,0.6-1.4,1.4-1.4s1.4,0.6,1.4,1.4v27.2l28.2-28.2
		c0.5-0.5,1.4-0.5,1.9,0c0.5,0.5,0.5,1.4,0,1.9L143,94.7V135l71.2-71.2c0.4-0.4,1-0.5,1.5-0.3c0.5,0.2,0.8,0.7,0.8,1.3V135
		l42.8-42.8V63.8c0-0.8,0.6-1.4,1.4-1.4s1.4,0.6,1.4,1.4v25.6L289.5,62c0.5-0.5,1.4-0.5,1.9,0c0.5,0.5,0.5,1.4,0,1.9l-29.4,29.4
		v41.9l71.2-71.2c0.4-0.4,1-0.5,1.5-0.3c0.5,0.2,0.8,0.7,0.8,1.3v70.2l73-73c0.5-0.5,1.4-0.5,1.9,0
		C411.1,62.7,411.1,63.6,410.5,64.1z"/>
</g>
<g>
	<path class="st1" d="M20.5,174.8l-1.7-6.1l-1.7,6.1h-2.7l-2.4-9.9h2.4l1.5,7.1l2-7.1h2l2,7.2l1.6-7.2h2.2l-2.4,9.9H20.5z"/>
	<path class="st1" d="M29.4,167.3c1.1,0,2.1,0.4,2.8,1.1c0.8,0.7,1.1,1.7,1.1,2.7c0,1.1-0.4,2-1.1,2.7c-0.8,0.7-1.7,1.1-2.8,1.1
		c-1.1,0-2.1-0.4-2.8-1.1c-0.8-0.7-1.1-1.7-1.1-2.7c0-1.1,0.4-2,1.1-2.7C27.4,167.6,28.3,167.3,29.4,167.3z M30.9,169.7
		c-0.4-0.4-0.9-0.6-1.4-0.6c-0.6,0-1,0.2-1.4,0.6c-0.4,0.4-0.6,0.9-0.6,1.5c0,0.6,0.2,1.1,0.6,1.5c0.4,0.4,0.8,0.6,1.4,0.6
		c0.6,0,1-0.2,1.4-0.6c0.4-0.4,0.6-0.9,0.6-1.5C31.4,170.5,31.2,170.1,30.9,169.7z"/>
	<path class="st1" d="M36.4,174.8h-2v-7.4h2v1c0.5-0.7,1.3-1.1,2.2-1.1v2c-0.7,0-1.2,0.2-1.6,0.6c-0.4,0.4-0.5,0.9-0.5,1.6V174.8z"
		/>
	<path class="st1" d="M41.6,174.8h-2v-9.9h2V174.8z"/>
	<path class="st1" d="M48.5,174.8v-0.5c-0.6,0.4-1.3,0.7-2.2,0.7c-1,0-1.9-0.4-2.6-1.1s-1.1-1.6-1.1-2.7c0-1.1,0.4-2,1.1-2.7
		c0.7-0.7,1.6-1.1,2.6-1.1c0.9,0,1.6,0.2,2.2,0.7v-3.1h2v9.9H48.5z M46.5,173.1c0.6,0,1.1-0.2,1.4-0.6c0.4-0.4,0.6-0.9,0.6-1.4
		c0-0.5-0.2-1-0.6-1.4c-0.4-0.4-0.9-0.6-1.4-0.6c-0.5,0-1,0.2-1.4,0.6c-0.4,0.4-0.6,0.9-0.6,1.4c0,0.6,0.2,1,0.6,1.4
		C45.5,172.9,45.9,173.1,46.5,173.1z"/>
	<path class="st1" d="M63,174.8l-1.7-6.1l-1.7,6.1h-2.7l-2.4-9.9h2.4l1.5,7.1l2-7.1h2l2,7.2l1.6-7.2H68l-2.4,9.9H63z"/>
	<path class="st1" d="M70.9,166.8h-2v-1.8h2V166.8z M70.9,174.8h-2v-7.4h2V174.8z"/>
	<path class="st1" d="M77.8,174.8v-0.5c-0.6,0.4-1.3,0.7-2.2,0.7c-1,0-1.9-0.4-2.6-1.1s-1.1-1.6-1.1-2.7c0-1.1,0.4-2,1.1-2.7
		c0.7-0.7,1.6-1.1,2.6-1.1c0.9,0,1.6,0.2,2.2,0.7v-3.1h2v9.9H77.8z M75.8,173.1c0.6,0,1.1-0.2,1.4-0.6c0.4-0.4,0.6-0.9,0.6-1.4
		c0-0.5-0.2-1-0.6-1.4c-0.4-0.4-0.9-0.6-1.4-0.6c-0.5,0-1,0.2-1.4,0.6c-0.4,0.4-0.6,0.9-0.6,1.4c0,0.6,0.2,1,0.6,1.4
		C74.8,172.9,75.2,173.1,75.8,173.1z"/>
	<path class="st1" d="M88.2,173.2c-0.8,1.2-1.9,1.8-3.5,1.8c-1.2,0-2.1-0.4-2.8-1.1c-0.7-0.7-1.1-1.6-1.1-2.8c0-1.1,0.4-2,1.1-2.7
		c0.7-0.7,1.7-1.1,2.8-1.1s2.1,0.4,2.7,1.1c0.7,0.7,1,1.6,1,2.7c0,0.1,0,0.2,0,0.3c0,0.1,0,0.2,0,0.3c0,0.1,0,0.1,0,0.1h-5.7
		c0.1,0.5,0.3,0.9,0.7,1.1c0.3,0.3,0.8,0.4,1.3,0.4c0.8,0,1.5-0.3,2-1L88.2,173.2z M84.7,168.9c-1,0-1.6,0.4-1.8,1.3h3.6
		c-0.1-0.4-0.3-0.8-0.6-1C85.4,169,85.1,168.9,84.7,168.9z"/>
	<path class="st1" d="M100.8,174.8l-1.7-6.1l-1.7,6.1h-2.7l-2.4-9.9h2.4l1.5,7.1l2-7.1h2l2,7.2l1.6-7.2h2.2l-2.4,9.9H100.8z"/>
	<path class="st1" d="M113.1,173.2c-0.8,1.2-1.9,1.8-3.5,1.8c-1.2,0-2.1-0.4-2.8-1.1c-0.7-0.7-1.1-1.6-1.1-2.8c0-1.1,0.4-2,1.1-2.7
		c0.7-0.7,1.7-1.1,2.8-1.1s2.1,0.4,2.7,1.1c0.7,0.7,1,1.6,1,2.7c0,0.1,0,0.2,0,0.3c0,0.1,0,0.2,0,0.3c0,0.1,0,0.1,0,0.1h-5.7
		c0.1,0.5,0.3,0.9,0.7,1.1c0.3,0.3,0.8,0.4,1.3,0.4c0.8,0,1.5-0.3,2-1L113.1,173.2z M109.6,168.9c-1,0-1.6,0.4-1.8,1.3h3.6
		c-0.1-0.4-0.3-0.8-0.6-1C110.4,169,110,168.9,109.6,168.9z"/>
	<path class="st1" d="M118.5,174.9c-0.9,0-1.6-0.2-2.2-0.7v0.5h-2v-9.9h2v3.1c0.6-0.4,1.3-0.7,2.2-0.7c1,0,1.9,0.4,2.6,1.1
		c0.7,0.7,1.1,1.6,1.1,2.7c0,1.1-0.4,2-1.1,2.7S119.6,174.9,118.5,174.9z M118.4,173.1c0.5,0,1-0.2,1.4-0.6c0.4-0.4,0.6-0.9,0.6-1.4
		c0-0.5-0.2-1-0.6-1.4c-0.4-0.4-0.8-0.6-1.4-0.6c-0.6,0-1,0.2-1.4,0.6c-0.4,0.4-0.6,0.9-0.6,1.4c0,0.6,0.2,1,0.6,1.4
		C117.3,172.9,117.8,173.1,118.4,173.1z"/>
	<path class="st1" d="M124.9,174.8h-2.1v-2.1h2.1V174.8z"/>
	<path class="st1" d="M131.6,171.5v3.4h-2.2v-9.9h4.2c1,0,1.9,0.3,2.5,0.9c0.6,0.6,0.9,1.4,0.9,2.4c0,0.8-0.2,1.5-0.7,2
		c-0.5,0.6-1.1,1-2,1.1l3.1,3.4h-2.9L131.6,171.5z M133.3,167h-1.6v2.6h1.6c0.5,0,0.9-0.1,1.1-0.4c0.3-0.2,0.4-0.6,0.4-0.9
		c0-0.4-0.1-0.7-0.4-1C134.1,167.1,133.8,167,133.3,167z"/>
	<path class="st1" d="M145.2,173.2c-0.8,1.2-1.9,1.8-3.5,1.8c-1.2,0-2.1-0.4-2.8-1.1c-0.7-0.7-1.1-1.6-1.1-2.8c0-1.1,0.4-2,1.1-2.7
		c0.7-0.7,1.7-1.1,2.8-1.1c1.1,0,2.1,0.4,2.7,1.1c0.7,0.7,1,1.6,1,2.7c0,0.1,0,0.2,0,0.3c0,0.1,0,0.2,0,0.3c0,0.1,0,0.1,0,0.1h-5.7
		c0.1,0.5,0.3,0.9,0.7,1.1c0.3,0.3,0.8,0.4,1.3,0.4c0.8,0,1.5-0.3,2-1L145.2,173.2z M141.7,168.9c-1,0-1.6,0.4-1.8,1.3h3.6
		c-0.1-0.4-0.3-0.8-0.6-1C142.5,169,142.1,168.9,141.7,168.9z"/>
	<path class="st1" d="M152.2,174.8v-0.5c-0.6,0.4-1.3,0.7-2.2,0.7c-1,0-1.9-0.4-2.6-1.1c-0.7-0.7-1.1-1.6-1.1-2.7
		c0-1.1,0.4-2,1.1-2.7c0.7-0.7,1.6-1.1,2.6-1.1c0.9,0,1.6,0.2,2.2,0.7v-0.6h2v7.4H152.2z M150.2,169.2c-0.5,0-1,0.2-1.4,0.6
		c-0.4,0.4-0.6,0.9-0.6,1.4c0,0.6,0.2,1,0.6,1.4c0.4,0.4,0.8,0.6,1.4,0.6c0.6,0,1.1-0.2,1.4-0.6c0.4-0.4,0.6-0.9,0.6-1.4
		c0-0.5-0.2-1-0.6-1.4C151.3,169.4,150.8,169.2,150.2,169.2z"/>
	<path class="st1" d="M157.4,174.8h-2v-9.9h2V174.8z"/>
	<path class="st1" d="M169.9,174.8l-1.7-6.1l-1.7,6.1h-2.7l-2.4-9.9h2.4l1.5,7.1l2-7.1h2l2,7.2l1.6-7.2h2.2l-2.4,9.9H169.9z"/>
	<path class="st1" d="M178.8,167.3c1.1,0,2.1,0.4,2.8,1.1c0.8,0.7,1.1,1.7,1.1,2.7c0,1.1-0.4,2-1.1,2.7c-0.8,0.7-1.7,1.1-2.8,1.1
		c-1.1,0-2.1-0.4-2.8-1.1c-0.8-0.7-1.1-1.7-1.1-2.7c0-1.1,0.4-2,1.1-2.7C176.7,167.6,177.6,167.3,178.8,167.3z M180.2,169.7
		c-0.4-0.4-0.9-0.6-1.4-0.6c-0.6,0-1,0.2-1.4,0.6c-0.4,0.4-0.6,0.9-0.6,1.5c0,0.6,0.2,1.1,0.6,1.5c0.4,0.4,0.8,0.6,1.4,0.6
		c0.6,0,1-0.2,1.4-0.6c0.4-0.4,0.6-0.9,0.6-1.5C180.7,170.5,180.6,170.1,180.2,169.7z"/>
	<path class="st1" d="M185.7,174.8h-2v-7.4h2v1c0.5-0.7,1.3-1.1,2.2-1.1v2c-0.7,0-1.2,0.2-1.6,0.6c-0.4,0.4-0.5,0.9-0.5,1.6V174.8z"
		/>
	<path class="st1" d="M190.9,174.8h-2v-9.9h2V174.8z"/>
	<path class="st1" d="M197.8,174.8v-0.5c-0.6,0.4-1.3,0.7-2.2,0.7c-1,0-1.9-0.4-2.6-1.1c-0.7-0.7-1.1-1.6-1.1-2.7
		c0-1.1,0.4-2,1.1-2.7c0.7-0.7,1.6-1.1,2.6-1.1c0.9,0,1.6,0.2,2.2,0.7v-3.1h2v9.9H197.8z M195.8,173.1c0.6,0,1.1-0.2,1.4-0.6
		c0.4-0.4,0.6-0.9,0.6-1.4c0-0.5-0.2-1-0.6-1.4c-0.4-0.4-0.9-0.6-1.4-0.6c-0.5,0-1,0.2-1.4,0.6c-0.4,0.4-0.6,0.9-0.6,1.4
		c0,0.6,0.2,1,0.6,1.4C194.8,172.9,195.2,173.1,195.8,173.1z"/>
	<path class="st1" d="M208.4,171.7h-4.3v-1.9h4.3V171.7z"/>
	<path class="st1" d="M220.9,174.8l-1.7-6.1l-1.7,6.1h-2.7l-2.4-9.9h2.4l1.5,7.1l2-7.1h2l2,7.2l1.6-7.2h2.2l-2.4,9.9H220.9z"/>
	<path class="st1" d="M235,174.8l-1.7-6.1l-1.7,6.1h-2.7l-2.4-9.9h2.4l1.5,7.1l2-7.1h2l2,7.2l1.6-7.2h2.2l-2.4,9.9H235z"/>
	<path class="st1" d="M249.2,174.8l-1.7-6.1l-1.7,6.1h-2.7l-2.4-9.9h2.4l1.5,7.1l2-7.1h2l2,7.2l1.6-7.2h2.2l-2.4,9.9H249.2z"/>
	<path class="st1" d="M255.9,174.8h-2.1v-2.1h2.1V174.8z"/>
	<path class="st1" d="M259.4,171.5v3.4h-2.2v-9.9h4.2c1,0,1.9,0.3,2.5,0.9c0.6,0.6,0.9,1.4,0.9,2.4c0,0.8-0.2,1.5-0.7,2
		c-0.5,0.6-1.1,1-2,1.1l3.1,3.4h-2.9L259.4,171.5z M261.1,167h-1.6v2.6h1.6c0.5,0,0.9-0.1,1.1-0.4c0.3-0.2,0.4-0.6,0.4-0.9
		c0-0.4-0.1-0.7-0.4-1C261.9,167.1,261.6,167,261.1,167z"/>
	<path class="st1" d="M273.7,174.8l-1.7-6.1l-1.7,6.1h-2.7l-2.4-9.9h2.4l1.5,7.1l2-7.1h2l2,7.2l1.6-7.2h2.2l-2.4,9.9H273.7z"/>
</g>
</svg>
